#!OML:ASF F:\VICON\USERDATA\INSTALL\rory3\rory3.ASF
:FULLY-SPECIFIED
:DEGREES
586
root -1.52954 16.7342 27.0288 214.696 146.208 -170.377
lowerback -21.5448 -0.764366 4.0362
upperback -11.094 -1.4802 1.92353
thorax -0.110975 -0.732227 -0.541935
lowerneck -1.95114 -7.85096 -5.22405
upperneck 23.2585 -9.05254 -5.55543
head 7.47527 -5.14633 -1.56733
rclavicle 2.56432e-014 -1.27222e-014
rhumerus -53.5969 5.01163 -64.7115
rradius 17.5019
rwrist -18.0111
rhand 27.2615 6.68829
rfingers 7.12502
rthumb 51.2289 -13.8645
lclavicle 2.56432e-014 -1.27222e-014
lhumerus -233.621 -189.822 233.733
lradius 19.7269
lwrist -8.09518
lhand 25.6995 25.6468
lfingers 7.12502
lthumb 49.8026 46.9726
rfemur 121.334 -190.924 -165.297
rtibia 43.7452
rfoot -57.8072 -41.9555
rtoes 41.9873
lfemur -16.575 0.291292 -26.6189
ltibia 36.7928
lfoot 4.49409 39.1312
ltoes 23.312
587
root -1.53127 16.7347 27.026 214.717 146.272 -170.504
lowerback -21.5618 -0.795677 4.09992
upperback -11.1323 -1.53317 1.98243
thorax -0.147323 -0.76066 -0.525584
lowerneck -1.14054 -8.32872 -5.95661
upperneck 22.1831 -9.87405 -4.94173
head 7.05705 -5.52767 -1.24127
rclavicle 3.44891e-014 2.38542e-014
rhumerus -53.4967 5.08212 -64.7163
rradius 17.5792
rwrist -18.1818
rhand 27.0063 6.83401
rfingers 7.12502
rthumb 50.9965 -13.8493
lclavicle 3.44891e-014 2.38542e-014
lhumerus -233.731 -189.99 233.478
lradius 19.6484
lwrist -8.26545
lhand 25.6018 25.9647
lfingers 7.12502
lthumb 49.7131 47.3368
rfemur 121.143 -191.325 -165.463
rtibia 43.7887
rfoot -58.1364 -42.1179
rtoes 41.8653
lfemur -16.6969 0.433589 -26.567
ltibia 36.7577
lfoot 5.01288 39.1437
ltoes 22.4885
588
root -1.52521 16.7383 27.0149 214.716 146.176 -170.694
lowerback -21.6905 -0.815361 4.38889
upperback -11.0852 -1.62431 2.05866
thorax -0.0454223 -0.814341 -0.628831
lowerneck -0.611471 -8.82866 -6.57602
upperneck 21.2723 -10.6844 -4.45469
head 6.74266 -5.91078 -0.992706
rclavicle 5.70512e-014 5.88403e-014
rhumerus -53.1995 5.34681 -64.9167
rradius 17.5312
rwrist -18.7479
rhand 26.7442 6.88027
rfingers 7.12502
rthumb 50.7576 -13.9354
lclavicle 5.70512e-014 5.88403e-014
lhumerus -233.718 -190.347 233.182
lradius 19.4742
lwrist -8.7204
lhand 25.6614 26.1919
lfingers 7.12502
lthumb 49.7677 47.5357
rfemur 120.971 -191.578 -165.536
rtibia 43.8298
rfoot -58.2255 -42.5172
rtoes 41.48
lfemur -16.8207 0.396063 -26.423
ltibia 36.7263
lfoot 4.68164 39.2924
ltoes 22.5008
589
root -1.52043 16.7399 27.0078 215.164 146.462 -170.233
lowerback -21.9469 -0.911673 4.00585
upperback -11.0795 -1.69094 1.95091
thorax 0.0979956 -0.833212 -0.546701
lowerneck -0.440298 -9.30176 -6.84589
upperneck 20.6475 -11.376 -4.34585
head 6.54475 -6.2466 -0.934553
rclavicle 8.36386e-014 0
rhumerus -53.0247 5.49604 -65.0804
rradius 17.5509
rwrist -19.1797
rhand 26.5416 6.85723
rfingers 7.12502
rthumb 50.5726 -14.0596
lclavicle 8.36386e-014 0
lhumerus -233.711 -190.823 232.644
lradius 19.1536
lwrist -9.44516
lhand 25.6112 25.9774
lfingers 7.12502
lthumb 49.7217 47.345
rfemur 120.639 -191.768 -166.316
rtibia 43.9011
rfoot -58.3628 -42.7529
rtoes 41.226
lfemur -16.9889 0.354106 -26.9794
ltibia 36.7008
lfoot 3.39726 39.4217
ltoes 24.3557
590
root -1.515 16.739 27.0052 215.419 146.606 -169.972
lowerback -22.1424 -0.946265 3.80936
upperback -11.0399 -1.71017 1.90892
thorax 0.244056 -0.833684 -0.48922
lowerneck -0.489256 -9.77513 -7.23626
upperneck 20.205 -12.0528 -4.13163
head 6.46213 -6.57983 -0.844592
rclavicle -5.1038e-014 -3.97569e-014
rhumerus -52.8584 5.19325 -64.6964
rradius 17.6744
rwrist -19.137
rhand 26.7485 6.64824
rfingers 7.12502
rthumb 50.7615 -14.1653
lclavicle -5.1038e-014 -3.97569e-014
lhumerus -233.71 -191.15 232.333
lradius 19.0716
lwrist -10.1784
lhand 25.97 25.5766
lfingers 7.12502
lthumb 50.0502 46.7729
rfemur 120.47 -191.97 -166.841
rtibia 43.9238
rfoot -58.7682 -42.536
rtoes 41.5169
lfemur -17.0926 0.311568 -27.276
ltibia 36.7284
lfoot 2.0829 39.5294
ltoes 26.4605
